name Walk4.mot
datacolumns 19
datarows 12
range 1.61000000 1.66500000
endheader

                time	   L_ground_force_vx	   L_ground_force_vy	   L_ground_force_vz	   L_ground_force_px	   L_ground_force_py	   L_ground_force_pz	   R_ground_force_vx	   R_ground_force_vy	   R_ground_force_vz	   R_ground_force_px	   R_ground_force_py	   R_ground_force_pz	   L_ground_torque_x	   L_ground_torque_y	   L_ground_torque_z	   R_ground_torque_x	   R_ground_torque_y	   R_ground_torque_z	
          1.61000000	         20.89640715	        545.92595040	         36.82108900	         -0.30280910	          0.00000000	         -0.08056318	         -0.01820904	          0.24248185	          0.00737049	          0.00015016	          0.00000000	          0.00006605	          0.00000000	          0.58680432	          0.00000000	          0.00000000	          0.00028069	          0.00000000	
          1.61500000	         23.27120462	        551.71392806	         37.62026190	         -0.30204871	          0.00000000	         -0.08087568	         -0.02652360	          0.31132397	          0.00761788	          0.00018239	          0.00000000	          0.00007978	          0.00000000	          0.58670524	          0.00000000	          0.00000000	          0.00039326	          0.00000000	
          1.62000000	         25.63309892	        557.93916537	         38.41370820	         -0.30129331	          0.00000000	         -0.08115127	         -0.03621806	          0.38027998	          0.00706415	          0.00021015	          0.00000000	          0.00009135	          0.00000000	          0.57579187	          0.00000000	          0.00000000	          0.00052028	          0.00000000	
          1.62500000	         27.97955482	        564.60195501	         39.18950813	         -0.30053926	          0.00000000	         -0.08138970	         -0.04686869	          0.44090938	          0.00532947	          0.00022752	          0.00000000	          0.00009812	          0.00000000	          0.55265265	          0.00000000	          0.00000000	          0.00065420	          0.00000000	
          1.63000000	         30.31580482	        571.68915982	         39.94008154	         -0.29978559	          0.00000000	         -0.08159099	         -0.05769684	          0.48107714	          0.00196718	          0.00022656	          0.00000000	          0.00009659	          0.00000000	          0.51655527	          0.00000000	          0.00000000	          0.00078235	          0.00000000	
          1.63500000	         32.65386329	        579.17354262	         40.66301255	         -0.29903290	          0.00000000	         -0.08175531	         -0.06746641	          0.48438360	         -0.00351853	          0.00019711	          0.00000000	          0.00008228	          0.00000000	          0.46741479	          0.00000000	          0.00000000	          0.00088570	          0.00000000	
          1.64000000	         35.01030310	        587.01384010	         41.36130627	         -0.29828322	          0.00000000	         -0.08188345	         -0.07438036	          0.42980153	         -0.01163889	          0.00012688	          0.00000000	          0.00004983	          0.00000000	          0.40589087	          0.00000000	          0.00000000	          0.00093763	          0.00000000	
          1.64500000	         37.40441822	        595.15423956	         42.04215223	         -0.29753930	          0.00000000	         -0.08197663	         -0.07598866	          0.29168076	         -0.02286622	          0.00000172	          0.00000000	         -0.00000693	          0.00000000	          0.33353228	          0.00000000	          0.00000000	          0.00090297	          0.00000000	
          1.65000000	         39.85730315	        603.52740059	         42.71439329	         -0.29680342	          0.00000000	         -0.08203533	         -0.06912506	          0.04032561	         -0.03755384	         -0.00019367	          0.00000000	         -0.00009458	          0.00000000	          0.25274285	          0.00000000	          0.00000000	          0.00073756	          0.00000000	
          1.65500000	         42.39137759	        612.05689558	         43.38620819	         -0.29607758	          0.00000000	         -0.08206056	         -0.04989705	         -0.35660579	         -0.05582597	         -0.00047447	          0.00000000	         -0.00021959	          0.00000000	          0.16662101	          0.00000000	          0.00000000	          0.00038866	          0.00000000	
          1.66000000	         45.02930436	        620.65258442	         44.06406277	         -0.29536382	          0.00000000	         -0.08205641	         -0.01375958	         -0.93159306	         -0.07743425	         -0.00085383	          0.00000000	         -0.00038745	          0.00000000	          0.07857313	          0.00000000	          0.00000000	         -0.00020334	          0.00000000	
          1.66500000	         47.79217993	        629.20998918	         44.75170479	         -0.29466359	          0.00000000	         -0.08202916	          0.04428941	         -1.71332496	         -0.10157995	         -0.00134009	          0.00000000	         -0.00060142	          0.00000000	         -0.00774439	          0.00000000	          0.00000000	         -0.00110141	          0.00000000	
